<svg width="188" height="198" viewBox="0 0 188 198" fill="none" xmlns="http://www.w3.org/2000/svg">
<path fill-rule="evenodd" clip-rule="evenodd" d="M56.4851 198V190.702C56.4851 178.283 57.7327 168.201 60.2281 160.455C62.7234 152.709 66.438 145.635 71.3719 139.234C76.3059 132.832 87.393 121.566 104.633 105.434C113.821 96.9835 118.414 89.2377 118.414 82.1959C118.414 75.1542 116.571 69.6809 112.885 65.7759C109.199 61.871 103.613 59.9185 96.1267 59.9185C88.0736 59.9185 81.41 62.9272 76.1357 68.9447C70.8615 74.9622 67.4872 85.4606 66.0127 100.44L0 91.2221C2.26849 63.8233 11.0871 41.7702 26.4561 25.0621C41.8251 8.35394 65.3887 0 97.1475 0C121.874 0 141.836 5.82535 157.035 17.4762C177.679 33.2241 188 54.221 188 80.4675C188 91.3502 185.335 101.849 180.004 111.963C174.673 122.078 163.784 134.433 147.338 149.028C135.882 159.271 128.651 167.497 125.645 173.706C122.64 179.916 121.137 188.014 121.137 198H56.4851Z" fill="white"/>
</svg>
