<svg width="512" height="512" viewBox="0 0 512 512" fill="none" xmlns="http://www.w3.org/2000/svg">
<rect width="512" height="512" fill="#B91C1C"/>
<path fill-rule="evenodd" clip-rule="evenodd" d="M225.5 277L242 102L50.5 71L121 277H167.75H225.5Z" fill="white"/>
<path fill-rule="evenodd" clip-rule="evenodd" d="M95 472.54L51 279L245 324.54L95 472.54Z" fill="white"/>
<path fill-rule="evenodd" clip-rule="evenodd" d="M329.485 239V231.702C329.485 219.283 330.733 209.201 333.228 201.455C335.723 193.709 339.438 186.635 344.372 180.234C349.306 173.832 360.393 162.566 377.633 146.434C386.821 137.983 391.414 130.238 391.414 123.196C391.414 116.154 389.571 110.681 385.885 106.776C382.199 102.871 376.613 100.919 369.127 100.919C361.074 100.919 354.41 103.927 349.136 109.945C343.862 115.962 340.487 126.461 339.013 141.44L273 132.222C275.268 104.823 284.087 82.7702 299.456 66.0621C314.825 49.3539 338.389 41 370.148 41C394.874 41 414.836 46.8254 430.035 58.4762C450.679 74.2241 461 95.221 461 121.468C461 132.35 458.335 142.849 453.004 152.963C447.673 163.078 436.784 175.433 420.338 190.028C408.882 200.271 401.651 208.497 398.645 214.706C395.64 220.916 394.137 229.014 394.137 239H329.485Z" fill="white"/>
<path fill-rule="evenodd" clip-rule="evenodd" d="M433.71 289.438C451.903 307.063 461 328.849 461 354.797C461 381.235 451.777 403.878 433.331 422.727C414.884 441.576 392.522 451 366.242 451C340.468 451 318.484 441.576 300.29 422.727C282.097 403.878 273 381.235 273 354.797C273 328.359 281.97 306.451 299.911 289.07C317.852 271.69 339.962 263 366.242 263C393.027 263 415.516 271.812 433.71 289.438Z" fill="white"/>
</svg>
